<svg xmlns="http://www.w3.org/2000/svg" width="512" height="512" viewBox="0 0 512 512">
  <!-- Background -->
  <rect width="512" height="512" rx="96" fill="#00b86b"/>

  <!-- Sun rays (large triangular spikes, behind everything) -->
  <g fill="#FFD966">
    <polygon points="256,80 244,180 268,180"/>
    <polygon points="168,112 206,190 224,178"/>
    <polygon points="344,112 306,190 288,178"/>
    <polygon points="120,168 186,214 198,198"/>
    <polygon points="392,168 326,214 314,198"/>
    <polygon points="96,228 176,236 180,218"/>
    <polygon points="416,228 336,236 332,218"/>
  </g>

  <!-- Sun (full circle, bottom half will be covered by book) -->
  <circle cx="256" cy="260" r="88" fill="#FFD966"/>

  <!-- Open book (wide V-shape, covers sun bottom half) -->
  <!-- Left page -->
  <path d="M80,290 Q90,254 150,248 L250,296 L250,420 Q100,400 80,350 Z" fill="rgba(255,255,255,0.95)"/>
  <!-- Right page -->
  <path d="M432,290 Q422,254 362,248 L262,296 L262,420 Q412,400 432,350 Z" fill="rgba(255,255,255,0.85)"/>

  <!-- Book spine / center line -->
  <line x1="256" y1="292" x2="256" y2="420" stroke="#00b86b" stroke-width="3" opacity="0.4"/>

  <!-- "ミ" hint - three lines on left page -->
  <line x1="130" y1="314" x2="228" y2="328" stroke="#00b86b" stroke-width="4" stroke-linecap="round" opacity="0.25"/>
  <line x1="136" y1="342" x2="236" y2="356" stroke="#00b86b" stroke-width="4" stroke-linecap="round" opacity="0.25"/>
  <line x1="142" y1="370" x2="242" y2="384" stroke="#00b86b" stroke-width="4" stroke-linecap="round" opacity="0.25"/>
</svg>
